<svg xmlns="http://www.w3.org/2000/svg" width="170" height="28" viewBox="0 0 170 28">
    <g fill="none" fill-rule="evenodd">
        <path fill="#FFFFFE" d="M1.115 20.796c-.335-.194-.61-.671-.61-1.06V7.659c0-.388.275-.866.61-1.06L11.536.561c.336-.194.885-.194 1.22 0L23.177 6.6c.336.194.61.672.61 1.06v12.077c0 .389-.274.866-.61 1.06l-10.42 6.038c-.336.194-.885.194-1.22 0L1.114 20.796"/>
        <path fill="#91928E" d="M10.045 12.469l.005-.003-8.386-4.833a.823.823 0 0 0-.124.404v11.33c0 .132.05.28.13.409l8.375-4.85V12.47"/>
        <path fill="#D7D6D1" d="M11.142 11.836l5.19-2.997a.144.144 0 0 0 .072-.125V3.991a.145.145 0 0 0-.072-.125L12.55 1.68a.888.888 0 0 0-.797 0L1.94 7.346a.805.805 0 0 0-.275.287l8.386 4.833 1.092-.63M1.939 20.057l7.89 4.555a.144.144 0 0 0 .216-.126v-9.56l-8.375 4.85c.071.117.165.22.269.281"/>
        <path fill="#91928E" d="M22.647 7.649a.814.814 0 0 0-.284-.303l-3.62-2.09a.144.144 0 0 0-.216.125v4.64"/>
        <path fill="#3D3E3C" d="M12.178 13.692l10.48 6.038a.795.795 0 0 0 .104-.363V8.037a.815.815 0 0 0-.115-.388l-10.474 6.04.005.003"/>
        <path fill="#91928E" d="M12.178 13.692V25.64c0 .133.143.216.258.15l9.927-5.734a.836.836 0 0 0 .294-.327l-10.479-6.038"/>
        <path fill="#1C1D1B" d="M56.833 14.387c-.516 0-.885.16-1.109.48-.223.32-.335.804-.335 1.461 0 .654.112 1.142.335 1.462.224.317.593.477 1.109.477h4.252c.517 0 .773-.26.773-.776v-3.104h-5.025zm4.201-7.501c.636 0 1.195.097 1.676.296.48.198.882.48 1.21.84.327.364.566.79.72 1.281.158.492.233 1.03.233 1.619v7.345c0 1.553-.772 2.328-2.318 2.328h-6.883c-1.169 0-2.027-.354-2.575-1.062-.552-.707-.828-1.775-.828-3.205 0-1.296.276-2.328.828-3.106.548-.776 1.406-1.164 2.575-1.164h6.186v-.882c0-1.307-.635-1.964-1.906-1.964h-6.677V6.886h7.759zM73.712 20.56a9.01 9.01 0 0 1-2.09-.222 3.817 3.817 0 0 1-1.583-.752 3.335 3.335 0 0 1-1.005-1.379c-.233-.57-.348-1.278-.348-2.124V9.179h-1.882V6.85h1.882V2.453H71.7V6.85h3.892v2.33H71.7v6.285c0 1.035.267 1.754.799 2.16.532.405 1.315.606 2.347.606h.746v2.329h-1.881M84.454 20.616c-.775 0-1.47-.074-2.09-.219-.617-.148-1.147-.396-1.583-.752a3.354 3.354 0 0 1-1.005-1.381c-.234-.571-.349-1.279-.349-2.122V9.235h-1.882V6.907h1.882V2.509h3.015v4.398h3.894v2.328h-3.894v6.285c0 1.036.268 1.758.8 2.16.533.406 1.315.608 2.343.608h.751v2.328h-1.882M97.517 12.461c.286 0 .469-.086.543-.258.077-.171.114-.352.114-.538 0-.447-.092-.832-.278-1.16a2.373 2.373 0 0 0-.748-.796 3.327 3.327 0 0 0-1.092-.45 5.702 5.702 0 0 0-1.282-.142c-1.267 0-2.156.267-2.661.799-.508.53-.761 1.38-.761 2.545h6.165zm-4.162 8.126c-1.085 0-1.953-.151-2.615-.45a3.44 3.44 0 0 1-1.533-1.326c-.363-.58-.61-1.296-.736-2.146-.127-.849-.189-1.822-.189-2.92 0-1.352.121-2.477.366-3.367.246-.89.634-1.601 1.17-2.134.53-.533 1.203-.906 2.014-1.119.812-.216 1.793-.322 2.942-.322.949 0 1.818.077 2.615.231.795.153 1.475.435 2.043.837.565.403 1.009.95 1.33 1.646.321.692.484 1.588.484 2.686 0 .772-.157 1.394-.47 1.865-.315.47-.85.707-1.61.707h-7.814c0 .515.028.985.087 1.415.06.429.19.795.393 1.106.205.308.494.547.876.72.38.17.89.256 1.535.256h6.572v2.315h-7.46zM108.645 6.915c-1.84 0-3.218.403-4.135 1.205-.92.801-1.382 2.124-1.382 3.968v8.537h3.017V12.89c0-1.225.242-2.137.722-2.74.479-.604 1.33-.906 2.552-.906h2.505V6.915h-3.28M116.894 18.288h3.324c.723 0 1.3-.116 1.728-.35.43-.23.757-.55.98-.956.224-.405.365-.884.425-1.435.06-.553.09-1.154.09-1.81 0-.64-.03-1.232-.09-1.785-.06-.554-.2-1.03-.424-1.436a2.318 2.318 0 0 0-.98-.946c-.43-.222-1.006-.335-1.729-.335h-2.552c-.514 0-.772.225-.772.672v8.38zm4.073-11.381c1.099 0 2.007.165 2.719.49.714.33 1.284.79 1.716 1.385.427.595.728 1.311.9 2.146.17.837.259 1.772.259 2.808 0 1.036-.089 1.974-.258 2.82-.173.846-.474 1.568-.9 2.172a4.228 4.228 0 0 1-1.717 1.397c-.712.328-1.62.491-2.719.491h-4.073v4.398h-3.015V9.235c0-1.55.774-2.328 2.319-2.328h4.77zM131.572 13.624c0 .832.07 1.538.215 2.122.142.585.371 1.065.682 1.435.315.376.732.648 1.255.816.523.169 1.164.255 1.924.255s1.404-.086 1.922-.255c.526-.168.943-.44 1.256-.816.31-.37.54-.85.685-1.435.141-.584.215-1.29.215-2.122 0-.829-.074-1.533-.215-2.11-.145-.574-.375-1.045-.685-1.409-.313-.367-.73-.633-1.256-.802-.518-.168-1.161-.254-1.922-.254-.76 0-1.4.086-1.924.254-.523.169-.94.435-1.255.802-.31.364-.54.835-.682 1.409-.144.577-.215 1.281-.215 2.11zm4.076-6.86c1.199 0 2.246.104 3.14.317.894.21 1.637.58 2.226 1.104.592.527 1.037 1.228 1.332 2.11.297.881.442 1.991.442 3.329 0 1.358-.145 2.474-.442 3.355-.295.88-.74 1.59-1.332 2.122-.589.533-1.332.905-2.225 1.119-.895.212-1.942.316-3.14.316-1.2 0-2.246-.104-3.142-.316-.894-.214-1.637-.586-2.227-1.119-.593-.533-1.034-1.243-1.331-2.122-.295-.881-.443-1.997-.443-3.355 0-1.338.148-2.448.443-3.33.297-.881.738-1.582 1.331-2.11.59-.523 1.333-.893 2.227-1.103.896-.213 1.941-.317 3.141-.317zM162.554 20.616c-.775 0-1.47-.074-2.088-.219-.62-.148-1.148-.396-1.587-.752a3.39 3.39 0 0 1-1.005-1.381c-.232-.571-.349-1.279-.349-2.122V9.235h-1.88V6.907h1.88V2.509h3.017v4.398h3.89v2.328h-3.89v6.285c0 1.036.265 1.758.797 2.16.534.406 1.318.608 2.346.608h.748v2.328h-1.88M150.403 6.907c-1.84 0-3.218.402-4.137 1.204-.92.802-1.38 2.125-1.38 3.968v8.537h3.018v-7.735c0-1.225.24-2.137.72-2.74.48-.604 1.332-.906 2.552-.906h2.502V6.907h-3.275M49.921 9.339c-.267-.604-.631-1.086-1.095-1.45-.465-.361-1.024-.616-1.675-.764a9.894 9.894 0 0 0-2.141-.218H30.86v13.71h3.017V9.234h5.207v11.381h3.015V9.236h2.345c1.032 0 1.765.266 2.204.802.436.535.658 1.32.658 2.355v8.223h3.015v-9.028c0-.897-.133-1.645-.4-2.25M167.764 7.959h.262a.46.46 0 0 0 .312-.1.324.324 0 0 0 .117-.258c0-.121-.034-.208-.104-.261-.07-.053-.179-.08-.33-.08h-.257v.699zm1.053-.367a.59.59 0 0 1-.393.567l.577.961h-.407l-.502-.862h-.328v.862h-.359V6.952h.633c.269 0 .465.052.59.158.126.105.189.266.189.482zm-2.309.443c0 .28.07.543.211.787s.333.436.576.576c.244.141.504.211.782.211a1.578 1.578 0 0 0 1.569-1.574 1.578 1.578 0 0 0-.782-1.362 1.517 1.517 0 0 0-.787-.213 1.53 1.53 0 0 0-.783.212 1.584 1.584 0 0 0-.786 1.363zm-.254 0c0-.325.08-.63.242-.913.162-.284.384-.508.667-.671.283-.165.588-.247.914-.247.324 0 .627.082.91.244.282.162.506.386.669.669.163.284.245.59.245.918a1.819 1.819 0 0 1-.895 1.574 1.78 1.78 0 0 1-.929.253 1.78 1.78 0 0 1-.926-.252 1.783 1.783 0 0 1-.66-.673 1.811 1.811 0 0 1-.237-.902z"/>
    </g>
</svg>
