<svg xmlns="http://www.w3.org/2000/svg" width="170" height="28" viewBox="0 0 170 28">
    <g fill="none" fill-rule="evenodd">
        <path fill="#FFFFFE" d="M1.03 20.722c-.31-.194-.563-.67-.563-1.057V7.632c0-.387.253-.863.563-1.056L10.658.559c.31-.194.818-.194 1.128 0l9.628 6.017c.31.193.563.669.563 1.056v12.033c0 .388-.253.863-.563 1.057l-9.628 6.017c-.31.193-.818.193-1.128 0L1.03 20.722"/>
        <path fill="#91928E" d="M9.28 12.424l.005-.003-7.748-4.815a.867.867 0 0 0-.115.402v11.29c0 .132.048.278.12.407l7.739-4.832v-2.449"/>
        <path fill="#D7D6D1" d="M10.294 11.794l4.795-2.986a.146.146 0 0 0 .067-.125V3.976a.147.147 0 0 0-.067-.124l-3.495-2.178a.767.767 0 0 0-.736 0L1.791 7.32a.778.778 0 0 0-.254.286l7.748 4.815 1.01-.627M1.791 19.986l7.29 4.538c.09.055.2-.015.2-.125v-9.526l-7.738 4.832a.79.79 0 0 0 .248.28"/>
        <path fill="#91928E" d="M20.924 7.622a.789.789 0 0 0-.263-.302l-3.345-2.082c-.088-.056-.199.013-.199.124v4.624"/>
        <path fill="#3D3E3C" d="M11.252 13.643l9.681 6.016a.84.84 0 0 0 .097-.361V8.008a.86.86 0 0 0-.106-.386l-9.677 6.018.005.003"/>
        <path fill="#91928E" d="M11.252 13.643v11.906c0 .133.132.216.238.15l9.171-5.713a.814.814 0 0 0 .272-.327l-9.681-6.016"/>
        <path fill="#FFFFFE" d="M52.508 14.336c-.476 0-.817.159-1.024.477-.206.319-.31.802-.31 1.457 0 .652.104 1.138.31 1.457.207.315.548.475 1.024.475h3.929c.478 0 .715-.26.715-.773v-3.093h-4.644zM56.39 6.86c.587 0 1.104.097 1.549.295.443.198.815.478 1.118.838.301.362.522.787.665 1.276.146.49.215 1.026.215 1.613v7.319c0 1.547-.714 2.32-2.141 2.32h-6.36c-1.08 0-1.873-.354-2.38-1.059-.509-.704-.764-1.769-.764-3.193 0-1.291.255-2.32.765-3.096.506-.773 1.3-1.159 2.38-1.159h5.715v-.878c0-1.303-.587-1.958-1.762-1.958h-6.169V6.861h7.17zM68.103 20.487a7.744 7.744 0 0 1-1.93-.222 3.424 3.424 0 0 1-1.463-.749c-.406-.35-.715-.807-.929-1.374-.215-.569-.322-1.274-.322-2.116v-6.88h-1.738v-2.32h1.738V2.444h2.786v4.382h3.596v2.32h-3.596v6.263c0 1.032.247 1.748.739 2.153.491.404 1.215.604 2.168.604h.69v2.32h-1.739M78.028 20.543a7.901 7.901 0 0 1-1.93-.218 3.51 3.51 0 0 1-1.464-.75 3.341 3.341 0 0 1-.928-1.376c-.216-.57-.322-1.274-.322-2.115V9.202h-1.74v-2.32h1.74V2.5h2.786v4.382h3.597v2.32H76.17v6.263c0 1.032.246 1.752.738 2.152.493.405 1.215.605 2.165.605h.694v2.32h-1.74M90.097 12.417c.265 0 .433-.086.502-.257.07-.171.106-.351.106-.537 0-.445-.086-.829-.258-1.156a2.303 2.303 0 0 0-.69-.793 2.955 2.955 0 0 0-1.01-.448 4.902 4.902 0 0 0-1.184-.142c-1.17 0-1.992.266-2.459.796-.469.528-.703 1.375-.703 2.537h5.696zm-3.845 8.096c-1.003 0-1.805-.15-2.416-.448a3.263 3.263 0 0 1-1.416-1.321c-.336-.578-.565-1.292-.68-2.138a21.413 21.413 0 0 1-.175-2.91c0-1.347.112-2.468.338-3.355.227-.888.586-1.596 1.08-2.126.49-.531 1.113-.903 1.862-1.115.75-.216 1.656-.321 2.718-.321.876 0 1.68.076 2.416.23.734.153 1.363.433 1.888.834.521.401.931.947 1.228 1.64.297.69.447 1.583.447 2.677 0 .77-.144 1.388-.434 1.857-.29.47-.785.705-1.488.705h-7.219c0 .513.026.982.08 1.41.056.427.176.793.364 1.102.19.307.456.546.809.717.351.17.823.256 1.418.256h6.072v2.306h-6.892zM100.378 6.89c-1.7 0-2.973.402-3.82 1.2-.85.8-1.276 2.118-1.276 3.955v8.506h2.787v-7.707c0-1.22.223-2.129.667-2.73.442-.602 1.229-.903 2.358-.903h2.314v-2.32h-3.03M108 18.222h3.071c.668 0 1.2-.115 1.597-.348.397-.23.698-.548.906-.952.206-.404.336-.882.392-1.43.055-.552.083-1.15.083-1.805 0-.637-.028-1.226-.083-1.778-.056-.551-.186-1.026-.392-1.43a2.225 2.225 0 0 0-.906-.943c-.397-.221-.93-.334-1.597-.334h-2.358c-.475 0-.713.224-.713.67v8.35zm3.763-11.34c1.015 0 1.854.165 2.512.49.66.327 1.186.786 1.586 1.379.394.593.673 1.306.832 2.138.157.834.238 1.766.238 2.798s-.081 1.967-.238 2.81c-.16.843-.438 1.562-.832 2.165a3.983 3.983 0 0 1-1.586 1.391c-.658.327-1.497.49-2.512.49H108v4.381h-2.786V9.202c0-1.545.715-2.32 2.143-2.32h4.406zM121.561 13.575c0 .829.065 1.533.199 2.115.13.583.343 1.06.63 1.43.29.374.676.645 1.16.813.483.168 1.075.253 1.777.253.703 0 1.297-.085 1.776-.253.485-.168.871-.44 1.16-.814.287-.368.5-.846.633-1.43.13-.58.199-1.285.199-2.114 0-.826-.068-1.527-.2-2.103-.133-.571-.345-1.04-.632-1.403a2.464 2.464 0 0 0-1.16-.799c-.479-.168-1.073-.253-1.776-.253-.702 0-1.294.085-1.777.253a2.478 2.478 0 0 0-1.16.799c-.287.363-.5.832-.63 1.403-.134.576-.199 1.277-.199 2.103zm3.766-6.835c1.108 0 2.075.104 2.902.316.825.209 1.512.578 2.056 1.1.547.525.958 1.223 1.23 2.102.274.879.409 1.985.409 3.317 0 1.354-.135 2.465-.409 3.344-.272.875-.683 1.583-1.23 2.114-.544.53-1.231.902-2.056 1.115-.827.212-1.794.315-2.902.315-1.109 0-2.074-.103-2.902-.315-.826-.213-1.513-.584-2.057-1.115-.548-.53-.956-1.239-1.23-2.114-.273-.879-.41-1.99-.41-3.344 0-1.332.137-2.438.41-3.317.274-.879.682-1.577 1.23-2.103.544-.521 1.23-.89 2.057-1.1.828-.211 1.793-.315 2.902-.315zM150.186 20.543a7.879 7.879 0 0 1-1.93-.218 3.524 3.524 0 0 1-1.465-.75 3.377 3.377 0 0 1-.929-1.376c-.215-.57-.322-1.274-.322-2.115V9.202h-1.738v-2.32h1.738V2.5h2.787v4.382h3.594v2.32h-3.594v6.263c0 1.032.245 1.752.736 2.152.494.405 1.218.605 2.168.605h.69v2.32h-1.735M138.96 6.882c-1.7 0-2.974.4-3.823 1.2-.85.799-1.275 2.117-1.275 3.954v8.507h2.788v-7.708c0-1.22.223-2.129.665-2.73.444-.602 1.231-.903 2.358-.903h2.313v-2.32h-3.027M46.123 9.305c-.247-.601-.583-1.082-1.012-1.444a3.755 3.755 0 0 0-1.548-.761 8.502 8.502 0 0 0-1.978-.218H28.512v13.66h2.787V9.203h4.811v11.34h2.786V9.203h2.166c.954 0 1.63.266 2.037.8.403.533.607 1.315.607 2.347v8.194h2.786v-8.997c0-.893-.123-1.639-.37-2.24M155 7.93h.242c.12 0 .215-.033.288-.1a.334.334 0 0 0 .108-.256c0-.12-.032-.208-.096-.26-.064-.053-.166-.08-.305-.08H155v.696zm.972-.366c0 .13-.031.244-.095.344a.573.573 0 0 1-.268.222l.533.957h-.376l-.464-.858H155v.858h-.332v-2.16h.585c.248 0 .43.052.545.157.116.105.174.265.174.48zm-2.133.442c0 .28.065.541.195.784.13.244.307.435.532.575.225.14.466.21.723.21.26 0 .501-.07.724-.211.222-.141.399-.331.53-.572.13-.24.195-.501.195-.786 0-.282-.065-.543-.194-.784a1.521 1.521 0 0 0-.528-.573 1.325 1.325 0 0 0-.727-.212c-.26 0-.501.07-.724.21-.222.142-.399.332-.53.572-.13.24-.196.502-.196.787zm-.235 0c0-.324.074-.627.224-.91.15-.282.355-.505.616-.668a1.56 1.56 0 0 1 .845-.246c.299 0 .579.081.84.243.261.161.467.384.618.666.151.284.227.588.227.915 0 .318-.073.617-.218.897-.145.28-.348.504-.61.672-.26.168-.547.252-.857.252-.31 0-.595-.084-.856-.251a1.722 1.722 0 0 1-.61-.67 1.916 1.916 0 0 1-.219-.9z"/>
    </g>
</svg>
